<?xml version="1.0" encoding="UTF-8"?>
<svg id="Layer_1" xmlns="http://www.w3.org/2000/svg" version="1.1" viewBox="0 0 214.7 74.7">
  <!-- Generator: Adobe Illustrator 30.4.0, SVG Export Plug-In . SVG Version: 2.1.4 Build 226)  -->
  <defs>
    <style>
      .st0 {
        fill: #fcf8f3;
      }

      .st1 {
        fill: #231f20;
      }

      .st2 {
        fill: #c55b3b;
      }

      .st3 {
        fill: #161311;
      }
    </style>
  </defs>
  <g>
    <path class="st1" d="M79.4,46.9v-12.2h2.2v3c0,0-.2,0-.2,0,.1-.7.4-1.2.7-1.7.3-.5.8-.8,1.3-1.1.5-.3,1.1-.4,1.6-.4,1,0,1.9.3,2.5.9.7.6,1.1,1.4,1.2,2.4h-.4c.1-.7.4-1.3.7-1.8.3-.5.8-.8,1.3-1.1.5-.3,1.1-.4,1.8-.4s1.6.2,2.2.5c.6.4,1.1.9,1.4,1.6.3.7.5,1.5.5,2.5v7.8h-2.4v-7.2c0-1.1-.2-1.8-.6-2.4-.4-.5-1-.8-1.7-.8s-.9.1-1.3.4c-.4.3-.7.6-.9,1.1s-.3,1.1-.3,1.8v7.1h-2.3v-7.1c0-1-.2-1.8-.5-2.4-.3-.6-.9-.9-1.7-.9s-1,.1-1.3.4c-.4.3-.7.6-.9,1.1-.2.5-.3,1.1-.3,1.7v7.1h-2.4Z"/>
    <path class="st1" d="M104.3,47.2c-1.2,0-2.2-.3-3.1-.8-.9-.5-1.5-1.3-2-2.2-.5-1-.7-2.1-.7-3.4s.2-2.4.7-3.3c.5-1,1.1-1.7,2-2.2.9-.5,1.9-.8,3-.8s2.1.3,2.9.8,1.5,1.2,2,2.2c.5,1,.7,2.1.7,3.5v.6h-8.7c0,1.2.4,2.1.9,2.7.6.6,1.3.9,2.3.9s1.3-.2,1.8-.5c.5-.3.8-.8,1-1.3l2.5.2c-.3,1.1-.9,2-1.9,2.7s-2.1,1-3.4,1ZM101.1,39.7h6.2c0-1.1-.4-1.9-.9-2.4s-1.2-.8-2.1-.8-1.6.3-2.1.8c-.6.5-.9,1.3-1,2.4Z"/>
    <path class="st1" d="M117,47.2c-1.1,0-2.1-.2-2.9-.5-.8-.3-1.4-.8-1.8-1.5-.4-.6-.7-1.3-.7-2.1h2.5c.1.6.4,1.1.9,1.5.5.4,1.2.6,2.1.6s1.4-.1,1.8-.4c.4-.2.7-.6.7-1.2s0-.5-.2-.7c-.1-.2-.4-.4-.8-.5-.4-.1-1-.3-1.8-.4-1.2-.2-2.1-.5-2.8-.8-.7-.3-1.2-.7-1.5-1.2s-.4-1-.4-1.7c0-1.1.4-2,1.2-2.7.8-.7,2-1.1,3.6-1.1s1.9.2,2.7.5,1.3.8,1.7,1.4.7,1.3.8,2h-2.5c0-.3-.2-.7-.4-1-.2-.3-.5-.6-.9-.7-.4-.2-.8-.3-1.3-.3-.8,0-1.4.2-1.7.5s-.6.7-.6,1.2,0,.7.3.9c.2.2.5.4.9.6.4.1.9.3,1.6.4,1.3.2,2.3.5,3,.8s1.2.7,1.5,1.2c.3.5.4,1,.4,1.7s-.2,1.4-.6,1.9c-.4.5-1,.9-1.8,1.2-.7.3-1.6.4-2.6.4Z"/>
    <path class="st1" d="M128,47.2c-1.3,0-2.3-.3-3-.9-.8-.6-1.1-1.4-1.1-2.4s.3-1.9.9-2.5c.6-.6,1.6-1,2.9-1.3l4.2-.8c0-.9-.2-1.7-.7-2.1-.4-.5-1.1-.7-2-.7s-1.4.2-1.8.5c-.4.3-.7.8-.9,1.5l-2.5-.2c.2-1.2.8-2.2,1.7-2.9.9-.7,2.1-1.1,3.5-1.1s2.9.4,3.8,1.3,1.3,2.1,1.3,3.7v4.7c0,.3,0,.5.1.6,0,.1.3.2.5.2h.4v1.9c0,0-.2,0-.4,0-.2,0-.3,0-.5,0-.5,0-1,0-1.3-.3s-.7-.4-.8-.8-.3-.9-.3-1.6h.3c-.1.6-.4,1.1-.8,1.5-.4.4-.9.7-1.5,1-.6.2-1.3.4-2,.4ZM128.4,45.3c.7,0,1.4-.1,1.9-.4.5-.3.9-.7,1.2-1.2.3-.5.4-1.1.4-1.7v-.8l-3.6.7c-.7.1-1.2.4-1.5.7-.3.3-.4.7-.4,1.1s.2.9.5,1.2c.4.3.9.4,1.5.4Z"/>
    <path class="st2" d="M137.5,50.4v-15.6h2.3v2.6c0,0-.2-.1-.2-.1.3-.9.8-1.6,1.5-2s1.5-.7,2.4-.7,2.2.3,2.9.9c.8.6,1.3,1.4,1.7,2.3.4,1,.6,2,.6,3.2s-.2,2.2-.6,3.2c-.4,1-.9,1.7-1.7,2.3-.8.6-1.7.9-2.9.9s-1.2-.1-1.7-.3c-.5-.2-1-.5-1.4-.9-.4-.4-.6-.8-.8-1.4l.3-.3v6h-2.4ZM143.1,45.1c1,0,1.7-.4,2.3-1.1.6-.7.8-1.8.8-3.1s-.3-2.4-.8-3.1c-.6-.7-1.3-1.1-2.3-1.1s-1.2.2-1.7.5c-.5.3-.8.8-1.1,1.4s-.4,1.4-.4,2.4.1,1.7.4,2.4c.3.6.6,1.1,1.1,1.4.5.3,1,.5,1.7.5Z"/>
    <path class="st2" d="M154.8,47.2c-1.3,0-2.3-.3-3-.9-.8-.6-1.1-1.4-1.1-2.4s.3-1.9.9-2.5c.6-.6,1.6-1,2.9-1.3l4.2-.8c0-.9-.2-1.7-.7-2.1s-1.1-.7-2-.7-1.4.2-1.8.5c-.4.3-.7.8-.9,1.5l-2.5-.2c.2-1.2.8-2.2,1.7-2.9s2.1-1.1,3.5-1.1,2.9.4,3.8,1.3,1.3,2.1,1.3,3.7v4.7c0,.3,0,.5.1.6,0,.1.3.2.5.2h.4v1.9c0,0-.2,0-.4,0-.2,0-.3,0-.5,0-.5,0-1,0-1.3-.3-.4-.2-.7-.4-.8-.8-.2-.4-.3-.9-.3-1.6h.3c-.1.6-.4,1.1-.8,1.5-.4.4-.9.7-1.5,1-.6.2-1.3.4-2,.4ZM155.2,45.3c.7,0,1.4-.1,1.9-.4.5-.3.9-.7,1.2-1.2.3-.5.4-1.1.4-1.7v-.8l-3.6.7c-.7.1-1.2.4-1.5.7s-.4.7-.4,1.1.2.9.5,1.2.9.4,1.5.4Z"/>
    <path class="st2" d="M164.4,50.4v-2h1.5c.4,0,.7,0,.9-.2s.4-.3.5-.6l.4-1h-.8l-4.4-11.8h2.6l3.3,9.6,3.2-9.6h2.6l-4.8,13.6c-.2.7-.6,1.2-1.1,1.5-.5.3-1.1.5-2,.5h-1.8Z"/>
  </g>
  <g>
    <path class="st3" d="M41.2,22.6h20.7c3.8,0,6.9,3.1,6.9,6.9v20.7c0,3.8-3.1,6.9-6.9,6.9h-20.7c-3.8,0-6.9-3.1-6.9-6.9v-20.7c0-3.8,3.1-6.9,6.9-6.9Z"/>
    <path class="st0" d="M51.1,48.6c0,0-.1,0-.2,0,0,0-.1-.2-.2-.3l-3.7-15.2c0-.1,0-.2-.1-.2,0,0-.1,0-.1.2l-.5,13.7c0,.5,0,.8.2,1.1.2.2.5.4.9.5h.3c.2,0,.3.2.3.3s-.1.3-.4.3h-3.5c-.2,0-.4,0-.4-.3s.1-.3.3-.3h.3c.4-.1.7-.3.9-.5.2-.2.2-.6.3-1.1l.5-14.1c0-.3,0-.6-.1-.7-.1-.1-.4-.2-.7-.3h-.6c-.2-.1-.3-.2-.3-.4s.1-.3.4-.3h3c.5,0,.8.2.9.7l3,12.3c0,.1,0,.2.2.2s.1,0,.1-.2l3.1-12.5c0-.4.4-.6.8-.6h2.9c.2,0,.4,0,.4.3s-.1.2-.3.3h-.6c-.3.2-.6.3-.7.4s-.2.3-.1.7l.5,14.5c0,.3,0,.6.2.7,0,.1.3.2.7.3h.6c.2.1.3.2.3.4s-.1.3-.4.3h-4.5c-.2,0-.4,0-.4-.3s.1-.2.3-.3h.6c.3-.2.6-.3.7-.4s.2-.3.1-.7l-.4-14.2c0-.1,0-.2-.1-.2,0,0-.1,0-.2.1l-3.8,15.2c0,.2,0,.3-.2.3s-.1,0-.2,0Z"/>
    <rect class="st2" x="50.4" y="35.6" width="2.3" height="1.2"/>
  </g>
</svg>